<?xml version="1.0" encoding="UTF-8" standalone="no"?>
<svg width="209.55mm" height="162.19mm"
 xmlns="http://www.w3.org/2000/svg" xmlns:xlink="http://www.w3.org/1999/xlink"  version="1.2" baseProfile="tiny">
<title>Avg Rating Per Month</title>
<desc>Rendered by Tableau</desc>
<defs>
</defs>
<g fill="none" stroke="black" stroke-width="1" fill-rule="evenodd" stroke-linecap="square" stroke-linejoin="bevel" >

<g >
<g fill="#ffffff" fill-opacity="1" stroke="none" transform="matrix(1,0,0,1,0,0)"
font-family="Benton Sans Book" font-size="16" font-weight="400" font-style="normal" 
>
<rect x="0" y="0" width="792" height="613"/>
</g>
</g>

<g >
<g fill="#ffffff" fill-opacity="1" stroke="none" transform="matrix(1,0,0,1,0,0)"
font-family="Benton Sans Book" font-size="16" font-weight="400" font-style="normal" 
>
<rect x="0" y="53" width="792" height="560"/>
</g>
</g>

<clipPath id ="clip1" >
<rect x="0" y="53" height="560" width="792" transform="matrix(1,0,0,1,0,0)" />
</clipPath>
<g  clip-path="url(#clip1)" 
>
<g fill="none" stroke="#000000" stroke-opacity="1" stroke-width="1" stroke-linecap="square" stroke-linejoin="bevel" transform="matrix(1,0,0,1,0,0)"
font-family="Benton Sans Book" font-size="16" font-weight="400" font-style="normal" 
>
</g>
</g>

<g >
<g fill="none" stroke="#000000" stroke-opacity="1" stroke-width="1" stroke-linecap="square" stroke-linejoin="bevel" transform="matrix(1,0,0,1,0,0)"
font-family="Benton Sans Book" font-size="16" font-weight="400" font-style="normal" 
>
</g>
</g>

<clipPath id ="clip2" >
<rect x="-1" y="-1" height="22" width="722" transform="matrix(1,0,0,1,72,53)" />
</clipPath>
<g  clip-path="url(#clip2)" 
>
<g fill="none" stroke="#000000" stroke-opacity="1" stroke-width="1" stroke-linecap="square" stroke-linejoin="bevel" transform="matrix(1,0,0,1,72,53)"
font-family="Benton Sans Book" font-size="16" font-weight="400" font-style="normal" 
>
</g>
</g>

<g  clip-path="url(#clip2)" 
>
<g fill="none" stroke="#333333" stroke-opacity="1" stroke-width="1" stroke-linecap="square" stroke-linejoin="bevel" transform="matrix(1,0,0,1,72,53)"
font-family="Arial" font-size="20" font-weight="400" font-style="normal" 
>
<text fill="#333333" fill-opacity="1" stroke="none" xml:space="preserve" x="292.797" y="17" font-family="Arial" font-size="20" font-weight="400" font-style="normal" 
 >Release Month</text>
</g>
</g>

<g >
<g fill="none" stroke="#333333" stroke-opacity="1" stroke-width="1" stroke-linecap="square" stroke-linejoin="bevel" transform="matrix(1,0,0,1,72,53)"
font-family="Arial" font-size="20" font-weight="400" font-style="normal" 
>
</g>
</g>

<clipPath id ="clip3" >
<rect x="-1" y="-1" height="29" width="722" transform="matrix(1,0,0,1,72,586)" />
</clipPath>
<g  clip-path="url(#clip3)" 
>
<g fill="none" stroke="#333333" stroke-opacity="1" stroke-width="1" stroke-linecap="square" stroke-linejoin="bevel" transform="matrix(1,0,0,1,72,586)"
font-family="Arial" font-size="20" font-weight="400" font-style="normal" 
>
</g>
</g>

<g  clip-path="url(#clip3)" 
>
<g fill="none" stroke="#f5f5f5" stroke-opacity="1" stroke-width="1" stroke-linecap="butt" stroke-linejoin="bevel" transform="matrix(1,0,0,1,72,586)"
font-family="Arial" font-size="20" font-weight="400" font-style="normal" 
>
<polyline fill="none" vector-effect="none" points="0,0 0,5 " />
<polyline fill="none" vector-effect="none" points="60,0 60,5 " />
<polyline fill="none" vector-effect="none" points="120,0 120,5 " />
<polyline fill="none" vector-effect="none" points="180,0 180,5 " />
<polyline fill="none" vector-effect="none" points="240,0 240,5 " />
<polyline fill="none" vector-effect="none" points="300,0 300,5 " />
<polyline fill="none" vector-effect="none" points="360,0 360,5 " />
<polyline fill="none" vector-effect="none" points="420,0 420,5 " />
<polyline fill="none" vector-effect="none" points="480,0 480,5 " />
<polyline fill="none" vector-effect="none" points="540,0 540,5 " />
<polyline fill="none" vector-effect="none" points="600,0 600,5 " />
<polyline fill="none" vector-effect="none" points="660,0 660,5 " />
<polyline fill="none" vector-effect="none" points="720,0 720,5 " />
</g>
</g>

<g  clip-path="url(#clip3)" 
>
<g fill="none" stroke="#f5f5f5" stroke-opacity="1" stroke-width="1" stroke-linecap="butt" stroke-linejoin="bevel" transform="matrix(1,0,0,1,72,586)"
font-family="Arial" font-size="20" font-weight="400" font-style="normal" 
>
</g>
</g>

<g  clip-path="url(#clip3)" 
>
<g fill="none" stroke="#666666" stroke-opacity="1" stroke-width="1" stroke-linecap="square" stroke-linejoin="bevel" transform="matrix(1,0,0,1,72,586)"
font-family="Arial" font-size="16" font-weight="400" font-style="normal" 
>
<text fill="#666666" fill-opacity="1" stroke="none" xml:space="preserve" x="25.5469" y="18" font-family="Arial" font-size="16" font-weight="400" font-style="normal" 
 >1</text>
</g>
</g>

<g  clip-path="url(#clip3)" 
>
<g fill="none" stroke="#666666" stroke-opacity="1" stroke-width="1" stroke-linecap="square" stroke-linejoin="bevel" transform="matrix(1,0,0,1,72,586)"
font-family="Arial" font-size="16" font-weight="400" font-style="normal" 
>
<text fill="#666666" fill-opacity="1" stroke="none" xml:space="preserve" x="85.5469" y="18" font-family="Arial" font-size="16" font-weight="400" font-style="normal" 
 >2</text>
</g>
</g>

<g  clip-path="url(#clip3)" 
>
<g fill="none" stroke="#666666" stroke-opacity="1" stroke-width="1" stroke-linecap="square" stroke-linejoin="bevel" transform="matrix(1,0,0,1,72,586)"
font-family="Arial" font-size="16" font-weight="400" font-style="normal" 
>
<text fill="#666666" fill-opacity="1" stroke="none" xml:space="preserve" x="145.547" y="18" font-family="Arial" font-size="16" font-weight="400" font-style="normal" 
 >3</text>
</g>
</g>

<g  clip-path="url(#clip3)" 
>
<g fill="none" stroke="#666666" stroke-opacity="1" stroke-width="1" stroke-linecap="square" stroke-linejoin="bevel" transform="matrix(1,0,0,1,72,586)"
font-family="Arial" font-size="16" font-weight="400" font-style="normal" 
>
<text fill="#666666" fill-opacity="1" stroke="none" xml:space="preserve" x="205.547" y="18" font-family="Arial" font-size="16" font-weight="400" font-style="normal" 
 >4</text>
</g>
</g>

<g  clip-path="url(#clip3)" 
>
<g fill="none" stroke="#666666" stroke-opacity="1" stroke-width="1" stroke-linecap="square" stroke-linejoin="bevel" transform="matrix(1,0,0,1,72,586)"
font-family="Arial" font-size="16" font-weight="400" font-style="normal" 
>
<text fill="#666666" fill-opacity="1" stroke="none" xml:space="preserve" x="265.547" y="18" font-family="Arial" font-size="16" font-weight="400" font-style="normal" 
 >5</text>
</g>
</g>

<g  clip-path="url(#clip3)" 
>
<g fill="none" stroke="#666666" stroke-opacity="1" stroke-width="1" stroke-linecap="square" stroke-linejoin="bevel" transform="matrix(1,0,0,1,72,586)"
font-family="Arial" font-size="16" font-weight="400" font-style="normal" 
>
<text fill="#666666" fill-opacity="1" stroke="none" xml:space="preserve" x="325.547" y="18" font-family="Arial" font-size="16" font-weight="400" font-style="normal" 
 >6</text>
</g>
</g>

<g  clip-path="url(#clip3)" 
>
<g fill="none" stroke="#666666" stroke-opacity="1" stroke-width="1" stroke-linecap="square" stroke-linejoin="bevel" transform="matrix(1,0,0,1,72,586)"
font-family="Arial" font-size="16" font-weight="400" font-style="normal" 
>
<text fill="#666666" fill-opacity="1" stroke="none" xml:space="preserve" x="385.547" y="18" font-family="Arial" font-size="16" font-weight="400" font-style="normal" 
 >7</text>
</g>
</g>

<g  clip-path="url(#clip3)" 
>
<g fill="none" stroke="#666666" stroke-opacity="1" stroke-width="1" stroke-linecap="square" stroke-linejoin="bevel" transform="matrix(1,0,0,1,72,586)"
font-family="Arial" font-size="16" font-weight="400" font-style="normal" 
>
<text fill="#666666" fill-opacity="1" stroke="none" xml:space="preserve" x="445.547" y="18" font-family="Arial" font-size="16" font-weight="400" font-style="normal" 
 >8</text>
</g>
</g>

<g  clip-path="url(#clip3)" 
>
<g fill="none" stroke="#666666" stroke-opacity="1" stroke-width="1" stroke-linecap="square" stroke-linejoin="bevel" transform="matrix(1,0,0,1,72,586)"
font-family="Arial" font-size="16" font-weight="400" font-style="normal" 
>
<text fill="#666666" fill-opacity="1" stroke="none" xml:space="preserve" x="505.547" y="18" font-family="Arial" font-size="16" font-weight="400" font-style="normal" 
 >9</text>
</g>
</g>

<g  clip-path="url(#clip3)" 
>
<g fill="none" stroke="#666666" stroke-opacity="1" stroke-width="1" stroke-linecap="square" stroke-linejoin="bevel" transform="matrix(1,0,0,1,72,586)"
font-family="Arial" font-size="16" font-weight="400" font-style="normal" 
>
<text fill="#666666" fill-opacity="1" stroke="none" xml:space="preserve" x="561.109" y="18" font-family="Arial" font-size="16" font-weight="400" font-style="normal" 
 >10</text>
</g>
</g>

<g  clip-path="url(#clip3)" 
>
<g fill="none" stroke="#666666" stroke-opacity="1" stroke-width="1" stroke-linecap="square" stroke-linejoin="bevel" transform="matrix(1,0,0,1,72,586)"
font-family="Arial" font-size="16" font-weight="400" font-style="normal" 
>
<text fill="#666666" fill-opacity="1" stroke="none" xml:space="preserve" x="621.109" y="18" font-family="Arial" font-size="16" font-weight="400" font-style="normal" 
 >11</text>
</g>
</g>

<g  clip-path="url(#clip3)" 
>
<g fill="none" stroke="#666666" stroke-opacity="1" stroke-width="1" stroke-linecap="square" stroke-linejoin="bevel" transform="matrix(1,0,0,1,72,586)"
font-family="Arial" font-size="16" font-weight="400" font-style="normal" 
>
<text fill="#666666" fill-opacity="1" stroke="none" xml:space="preserve" x="681.109" y="18" font-family="Arial" font-size="16" font-weight="400" font-style="normal" 
 >12</text>
</g>
</g>

<g >
<g fill="none" stroke="#666666" stroke-opacity="1" stroke-width="1" stroke-linecap="square" stroke-linejoin="bevel" transform="matrix(1,0,0,1,72,586)"
font-family="Arial" font-size="16" font-weight="400" font-style="normal" 
>
</g>
</g>

<clipPath id ="clip4" >
<rect x="-1" y="-1" height="515" width="74" transform="matrix(1,0,0,1,0,73)" />
</clipPath>
<g  clip-path="url(#clip4)" 
>
<g fill="none" stroke="#666666" stroke-opacity="1" stroke-width="1" stroke-linecap="square" stroke-linejoin="bevel" transform="matrix(1,0,0,1,0,73)"
font-family="Arial" font-size="16" font-weight="400" font-style="normal" 
>
</g>
</g>

<g  clip-path="url(#clip4)" 
>
<g fill="none" stroke="#f5f5f5" stroke-opacity="1" stroke-width="1" stroke-linecap="butt" stroke-linejoin="bevel" transform="matrix(1,0,0,1,0,73)"
font-family="Arial" font-size="16" font-weight="400" font-style="normal" 
>
<polyline fill="none" vector-effect="none" points="67,513 72,513 " />
<polyline fill="none" vector-effect="none" points="67,449 72,449 " />
<polyline fill="none" vector-effect="none" points="67,385 72,385 " />
<polyline fill="none" vector-effect="none" points="67,321 72,321 " />
<polyline fill="none" vector-effect="none" points="67,257 72,257 " />
<polyline fill="none" vector-effect="none" points="67,193 72,193 " />
<polyline fill="none" vector-effect="none" points="67,129 72,129 " />
<polyline fill="none" vector-effect="none" points="67,65 72,65 " />
<polyline fill="none" vector-effect="none" points="67,1 72,1 " />
</g>
</g>

<g  clip-path="url(#clip4)" 
>
<g fill="none" stroke="#666666" stroke-opacity="1" stroke-width="1" stroke-linecap="square" stroke-linejoin="bevel" transform="matrix(1,0,0,1,0,73)"
font-family="Arial" font-size="16" font-weight="400" font-style="normal" 
>
<text fill="#666666" fill-opacity="1" stroke="none" xml:space="preserve" x="42.7813" y="509" font-family="Arial" font-size="16" font-weight="400" font-style="normal" 
 >0.0</text>
</g>
</g>

<g  clip-path="url(#clip4)" 
>
<g fill="none" stroke="#666666" stroke-opacity="1" stroke-width="1" stroke-linecap="square" stroke-linejoin="bevel" transform="matrix(1,0,0,1,0,73)"
font-family="Arial" font-size="16" font-weight="400" font-style="normal" 
>
<text fill="#666666" fill-opacity="1" stroke="none" xml:space="preserve" x="42.7813" y="454" font-family="Arial" font-size="16" font-weight="400" font-style="normal" 
 >0.5</text>
</g>
</g>

<g  clip-path="url(#clip4)" 
>
<g fill="none" stroke="#666666" stroke-opacity="1" stroke-width="1" stroke-linecap="square" stroke-linejoin="bevel" transform="matrix(1,0,0,1,0,73)"
font-family="Arial" font-size="16" font-weight="400" font-style="normal" 
>
<text fill="#666666" fill-opacity="1" stroke="none" xml:space="preserve" x="42.7813" y="390" font-family="Arial" font-size="16" font-weight="400" font-style="normal" 
 >1.0</text>
</g>
</g>

<g  clip-path="url(#clip4)" 
>
<g fill="none" stroke="#666666" stroke-opacity="1" stroke-width="1" stroke-linecap="square" stroke-linejoin="bevel" transform="matrix(1,0,0,1,0,73)"
font-family="Arial" font-size="16" font-weight="400" font-style="normal" 
>
<text fill="#666666" fill-opacity="1" stroke="none" xml:space="preserve" x="42.7813" y="326" font-family="Arial" font-size="16" font-weight="400" font-style="normal" 
 >1.5</text>
</g>
</g>

<g  clip-path="url(#clip4)" 
>
<g fill="none" stroke="#666666" stroke-opacity="1" stroke-width="1" stroke-linecap="square" stroke-linejoin="bevel" transform="matrix(1,0,0,1,0,73)"
font-family="Arial" font-size="16" font-weight="400" font-style="normal" 
>
<text fill="#666666" fill-opacity="1" stroke="none" xml:space="preserve" x="42.7813" y="262" font-family="Arial" font-size="16" font-weight="400" font-style="normal" 
 >2.0</text>
</g>
</g>

<g  clip-path="url(#clip4)" 
>
<g fill="none" stroke="#666666" stroke-opacity="1" stroke-width="1" stroke-linecap="square" stroke-linejoin="bevel" transform="matrix(1,0,0,1,0,73)"
font-family="Arial" font-size="16" font-weight="400" font-style="normal" 
>
<text fill="#666666" fill-opacity="1" stroke="none" xml:space="preserve" x="42.7813" y="198" font-family="Arial" font-size="16" font-weight="400" font-style="normal" 
 >2.5</text>
</g>
</g>

<g  clip-path="url(#clip4)" 
>
<g fill="none" stroke="#666666" stroke-opacity="1" stroke-width="1" stroke-linecap="square" stroke-linejoin="bevel" transform="matrix(1,0,0,1,0,73)"
font-family="Arial" font-size="16" font-weight="400" font-style="normal" 
>
<text fill="#666666" fill-opacity="1" stroke="none" xml:space="preserve" x="42.7813" y="134" font-family="Arial" font-size="16" font-weight="400" font-style="normal" 
 >3.0</text>
</g>
</g>

<g  clip-path="url(#clip4)" 
>
<g fill="none" stroke="#666666" stroke-opacity="1" stroke-width="1" stroke-linecap="square" stroke-linejoin="bevel" transform="matrix(1,0,0,1,0,73)"
font-family="Arial" font-size="16" font-weight="400" font-style="normal" 
>
<text fill="#666666" fill-opacity="1" stroke="none" xml:space="preserve" x="42.7813" y="70" font-family="Arial" font-size="16" font-weight="400" font-style="normal" 
 >3.5</text>
</g>
</g>

<g  clip-path="url(#clip4)" 
>
<g fill="none" stroke="#666666" stroke-opacity="1" stroke-width="1" stroke-linecap="square" stroke-linejoin="bevel" transform="matrix(1,0,0,1,0,73)"
font-family="Arial" font-size="16" font-weight="400" font-style="normal" 
>
<text fill="#666666" fill-opacity="1" stroke="none" xml:space="preserve" x="42.7813" y="14" font-family="Arial" font-size="16" font-weight="400" font-style="normal" 
 >4.0</text>
</g>
</g>

<g  clip-path="url(#clip4)" 
>
<g fill="none" stroke="#666666" stroke-opacity="1" stroke-width="1" stroke-linecap="square" stroke-linejoin="bevel" transform="matrix(1,0,0,1,0,73)"
font-family="Arial" font-size="16" font-weight="400" font-style="normal" 
>
</g>
</g>

<g  clip-path="url(#clip4)" 
>
<g fill="none" stroke="#333333" stroke-opacity="1" stroke-width="1" stroke-linecap="square" stroke-linejoin="bevel" transform="matrix(0,-1,1,0,25.0938,377.367)"
font-family="Arial" font-size="20" font-weight="400" font-style="normal" 
>
<text fill="#333333" fill-opacity="1" stroke="none" xml:space="preserve" x="0" y="0" font-family="Arial" font-size="20" font-weight="400" font-style="normal" 
 >Avg Rating</text>
</g>
</g>

<g  clip-path="url(#clip4)" 
>
<g fill="none" stroke="#666666" stroke-opacity="1" stroke-width="1" stroke-linecap="square" stroke-linejoin="bevel" transform="matrix(1,0,0,1,0,73)"
font-family="Arial" font-size="16" font-weight="400" font-style="normal" 
>
</g>
</g>

<g >
<g fill="none" stroke="#666666" stroke-opacity="1" stroke-width="1" stroke-linecap="square" stroke-linejoin="bevel" transform="matrix(1,0,0,1,0,73)"
font-family="Arial" font-size="16" font-weight="400" font-style="normal" 
>
</g>
</g>

<g  clip-path="url(#clip4)" 
>
<g fill="none" stroke="#666666" stroke-opacity="1" stroke-width="1" stroke-linecap="square" stroke-linejoin="bevel" transform="matrix(1,0,0,1,72,73)"
font-family="Arial" font-size="16" font-weight="400" font-style="normal" 
>
</g>
</g>

<clipPath id ="clip5" >
<rect x="0" y="0" height="514" width="721" transform="matrix(1,0,0,1,72,73)" />
</clipPath>
<g  clip-path="url(#clip5)" 
>
<g fill="none" stroke="#666666" stroke-opacity="1" stroke-width="1" stroke-linecap="square" stroke-linejoin="bevel" transform="matrix(1,0,0,1,72,73)"
font-family="Arial" font-size="16" font-weight="400" font-style="normal" 
>
</g>
</g>

<clipPath id ="clip6" >
<rect x="0" y="0" height="514" width="721" transform="matrix(1,0,0,1,72,73)" />
</clipPath>
<g  clip-path="url(#clip6)" 
>
<g fill="none" stroke="#666666" stroke-opacity="1" stroke-width="1" stroke-linecap="square" stroke-linejoin="bevel" transform="matrix(1,0,0,1,72,73)"
font-family="Arial" font-size="16" font-weight="400" font-style="normal" 
>
</g>
</g>

<g  clip-path="url(#clip6)" 
>
<g fill="#ffffff" fill-opacity="1" stroke="none" transform="matrix(1,0,0,1,72,73)"
font-family="Arial" font-size="16" font-weight="400" font-style="normal" 
>
<rect x="0" y="0" width="721" height="514"/>
</g>
</g>

<g  clip-path="url(#clip6)" 
>
<g fill="#ffffff" fill-opacity="1" stroke="none" transform="matrix(1,0,0,1,72,73)"
font-family="Arial" font-size="16" font-weight="400" font-style="normal" 
>
<rect x="0" y="0" width="721" height="514"/>
</g>
</g>

<clipPath id ="clip7" >
<rect x="0" y="0" height="514" width="721" transform="matrix(1,0,0,1,72,73)" />
</clipPath>
<g  clip-path="url(#clip7)" 
>
<g fill="none" stroke="#666666" stroke-opacity="1" stroke-width="1" stroke-linecap="square" stroke-linejoin="bevel" transform="matrix(1,0,0,1,72,73)"
font-family="Arial" font-size="16" font-weight="400" font-style="normal" 
>
</g>
</g>

<g  clip-path="url(#clip7)" 
>
<g fill="#ffffff" fill-opacity="1" stroke="none" transform="matrix(1,0,0,1,72,73)"
font-family="Arial" font-size="16" font-weight="400" font-style="normal" 
>
<rect x="0" y="0" width="721" height="514"/>
</g>
</g>

<clipPath id ="clip8" >
<rect x="0" y="0" height="514" width="721" transform="matrix(1,0,0,1,72,73)" />
</clipPath>
<g  clip-path="url(#clip8)" 
>
<g fill="none" stroke="#666666" stroke-opacity="1" stroke-width="1" stroke-linecap="square" stroke-linejoin="bevel" transform="matrix(1,0,0,1,72,73)"
font-family="Arial" font-size="16" font-weight="400" font-style="normal" 
>
</g>
</g>

<clipPath id ="clip9" >
<rect x="0" y="0" height="514" width="721" transform="matrix(1,0,0,1,72,73)" />
</clipPath>
<g  clip-path="url(#clip9)" 
>
<g fill="none" stroke="#666666" stroke-opacity="1" stroke-width="1" stroke-linecap="square" stroke-linejoin="bevel" transform="matrix(1,0,0,1,72,73)"
font-family="Arial" font-size="16" font-weight="400" font-style="normal" 
>
</g>
</g>

<clipPath id ="clip10" >
<rect x="0" y="0" height="514" width="721" transform="matrix(1,0,0,1,72,73)" />
</clipPath>
<g  clip-path="url(#clip10)" 
>
<g fill="none" stroke="#666666" stroke-opacity="1" stroke-width="1" stroke-linecap="square" stroke-linejoin="bevel" transform="matrix(1,0,0,1,72,73)"
font-family="Arial" font-size="16" font-weight="400" font-style="normal" 
>
</g>
</g>

<clipPath id ="clip11" >
<rect x="0" y="0" height="514" width="721" transform="matrix(1,0,0,1,72,73)" />
</clipPath>
<g  clip-path="url(#clip11)" 
>
<g fill="none" stroke="#666666" stroke-opacity="1" stroke-width="1" stroke-linecap="square" stroke-linejoin="bevel" transform="matrix(1,0,0,1,72,73)"
font-family="Arial" font-size="16" font-weight="400" font-style="normal" 
>
</g>
</g>

<g  clip-path="url(#clip11)" 
>
<g fill="#ffffff" fill-opacity="1" stroke="none" transform="matrix(1,0,0,1,72,73)"
font-family="Arial" font-size="16" font-weight="400" font-style="normal" 
>
<rect x="0" y="0" width="721" height="514"/>
</g>
</g>

<clipPath id ="clip12" >
<rect x="0" y="0" height="514" width="721" transform="matrix(1,0,0,1,72,73)" />
</clipPath>
<g  clip-path="url(#clip12)" 
>
<g fill="none" stroke="#666666" stroke-opacity="1" stroke-width="1" stroke-linecap="square" stroke-linejoin="bevel" transform="matrix(1,0,0,1,72,73)"
font-family="Arial" font-size="16" font-weight="400" font-style="normal" 
>
</g>
</g>

<clipPath id ="clip13" >
<rect x="0" y="0" height="513" width="720" transform="matrix(1,0,0,1,72,73)" />
</clipPath>
<g  clip-path="url(#clip13)" 
>
<g fill="none" stroke="#666666" stroke-opacity="1" stroke-width="1" stroke-linecap="square" stroke-linejoin="bevel" transform="matrix(1,0,0,1,72,73)"
font-family="Arial" font-size="16" font-weight="400" font-style="normal" 
>
</g>
</g>

<g  clip-path="url(#clip13)" 
>
<g fill="none" stroke="#f2f2f2" stroke-opacity="1" stroke-width="1" stroke-linecap="square" stroke-linejoin="bevel" transform="matrix(1,0,0,1,72,73)"
font-family="Arial" font-size="16" font-weight="400" font-style="normal" 
>
<polyline fill="none" vector-effect="none" points="0,449 720,449 " />
<polyline fill="none" vector-effect="none" points="0,385 720,385 " />
<polyline fill="none" vector-effect="none" points="0,321 720,321 " />
<polyline fill="none" vector-effect="none" points="0,257 720,257 " />
<polyline fill="none" vector-effect="none" points="0,193 720,193 " />
<polyline fill="none" vector-effect="none" points="0,129 720,129 " />
<polyline fill="none" vector-effect="none" points="0,65 720,65 " />
<polyline fill="none" vector-effect="none" points="0,1 720,1 " />
</g>
</g>

<clipPath id ="clip14" >
<rect x="0" y="0" height="514" width="721" transform="matrix(1,0,0,1,72,73)" />
</clipPath>
<g  clip-path="url(#clip14)" 
>
<g fill="none" stroke="#f2f2f2" stroke-opacity="1" stroke-width="1" stroke-linecap="square" stroke-linejoin="bevel" transform="matrix(1,0,0,1,72,73)"
font-family="Arial" font-size="16" font-weight="400" font-style="normal" 
>
</g>
</g>

<clipPath id ="clip15" >
<rect x="0" y="0" height="513" width="720" transform="matrix(1,0,0,1,72,73)" />
</clipPath>
<g  clip-path="url(#clip15)" 
>
<g fill="none" stroke="#f2f2f2" stroke-opacity="1" stroke-width="1" stroke-linecap="square" stroke-linejoin="bevel" transform="matrix(1,0,0,1,72,73)"
font-family="Arial" font-size="16" font-weight="400" font-style="normal" 
>
</g>
</g>

<g  clip-path="url(#clip15)" 
>
<g fill="none" stroke="#cbcbcb" stroke-opacity="1" stroke-dasharray="1,2" stroke-dashoffset="0" stroke-width="1" stroke-linecap="square" stroke-linejoin="bevel" transform="matrix(1,0,0,1,72,73)"
font-family="Arial" font-size="16" font-weight="400" font-style="normal" 
>
<polyline fill="none" vector-effect="none" points="0,513 720,513 " />
</g>
</g>

<clipPath id ="clip16" >
<rect x="0" y="0" height="514" width="721" transform="matrix(1,0,0,1,72,73)" />
</clipPath>
<g  clip-path="url(#clip16)" 
>
<g fill="none" stroke="#cbcbcb" stroke-opacity="1" stroke-dasharray="1,2" stroke-dashoffset="0" stroke-width="1" stroke-linecap="square" stroke-linejoin="bevel" transform="matrix(1,0,0,1,72,73)"
font-family="Arial" font-size="16" font-weight="400" font-style="normal" 
>
</g>
</g>

<clipPath id ="clip17" >
<rect x="0" y="0" height="513" width="720" transform="matrix(1,0,0,1,72,73)" />
</clipPath>
<g  clip-path="url(#clip17)" 
>
<g fill="none" stroke="#cbcbcb" stroke-opacity="1" stroke-dasharray="1,2" stroke-dashoffset="0" stroke-width="1" stroke-linecap="square" stroke-linejoin="bevel" transform="matrix(1,0,0,1,72,73)"
font-family="Arial" font-size="16" font-weight="400" font-style="normal" 
>
</g>
</g>

<clipPath id ="clip18" >
<rect x="0" y="0" height="514" width="721" transform="matrix(1,0,0,1,72,73)" />
</clipPath>
<g  clip-path="url(#clip18)" 
>
<g fill="none" stroke="#cbcbcb" stroke-opacity="1" stroke-dasharray="1,2" stroke-dashoffset="0" stroke-width="1" stroke-linecap="square" stroke-linejoin="bevel" transform="matrix(1,0,0,1,72,73)"
font-family="Arial" font-size="16" font-weight="400" font-style="normal" 
>
</g>
</g>

<clipPath id ="clip19" >
<rect x="0" y="0" height="514" width="721" transform="matrix(1,0,0,1,72,73)" />
</clipPath>
<g  clip-path="url(#clip19)" 
>
<g fill="none" stroke="#cbcbcb" stroke-opacity="1" stroke-dasharray="1,2" stroke-dashoffset="0" stroke-width="1" stroke-linecap="square" stroke-linejoin="bevel" transform="matrix(1,0,0,1,72,73)"
font-family="Arial" font-size="16" font-weight="400" font-style="normal" 
>
</g>
</g>

<clipPath id ="clip20" >
<rect x="0" y="0" height="513" width="720" transform="matrix(1,0,0,1,72,73)" />
</clipPath>
<g  clip-path="url(#clip20)" 
>
<g fill="none" stroke="#cbcbcb" stroke-opacity="1" stroke-dasharray="1,2" stroke-dashoffset="0" stroke-width="1" stroke-linecap="square" stroke-linejoin="bevel" transform="matrix(1,0,0,1,72,73)"
font-family="Arial" font-size="16" font-weight="400" font-style="normal" 
>
</g>
</g>

<clipPath id ="clip21" >
<rect x="0" y="0" height="514" width="721" transform="matrix(1,0,0,1,72,73)" />
</clipPath>
<g  clip-path="url(#clip21)" 
>
<g fill="none" stroke="#cbcbcb" stroke-opacity="1" stroke-dasharray="1,2" stroke-dashoffset="0" stroke-width="1" stroke-linecap="square" stroke-linejoin="bevel" transform="matrix(1,0,0,1,72,73)"
font-family="Arial" font-size="16" font-weight="400" font-style="normal" 
>
</g>
</g>

<clipPath id ="clip22" >
<rect x="0" y="0" height="513" width="720" transform="matrix(1,0,0,1,72,73)" />
</clipPath>
<g  clip-path="url(#clip22)" 
>
<g fill="none" stroke="#cbcbcb" stroke-opacity="1" stroke-dasharray="1,2" stroke-dashoffset="0" stroke-width="1" stroke-linecap="square" stroke-linejoin="bevel" transform="matrix(1,0,0,1,72,73)"
font-family="Arial" font-size="16" font-weight="400" font-style="normal" 
>
</g>
</g>

<clipPath id ="clip23" >
<rect x="0" y="0" height="514" width="721" transform="matrix(1,0,0,1,72,73)" />
</clipPath>
<g  clip-path="url(#clip23)" 
>
<g fill="none" stroke="#cbcbcb" stroke-opacity="1" stroke-dasharray="1,2" stroke-dashoffset="0" stroke-width="1" stroke-linecap="square" stroke-linejoin="bevel" transform="matrix(1,0,0,1,72,73)"
font-family="Arial" font-size="16" font-weight="400" font-style="normal" 
>
</g>
</g>

<clipPath id ="clip24" >
<rect x="0" y="0" height="513" width="720" transform="matrix(1,0,0,1,72,73)" />
</clipPath>
<g  clip-path="url(#clip24)" 
>
<g fill="none" stroke="#cbcbcb" stroke-opacity="1" stroke-dasharray="1,2" stroke-dashoffset="0" stroke-width="1" stroke-linecap="square" stroke-linejoin="bevel" transform="matrix(1,0,0,1,72,73)"
font-family="Arial" font-size="16" font-weight="400" font-style="normal" 
>
</g>
</g>

<g  clip-path="url(#clip24)" 
>
<g fill="#4e79a7" fill-opacity="1" stroke="none" transform="matrix(1,0,0,1,72,73)"
font-family="Arial" font-size="16" font-weight="400" font-style="normal" 
>
<rect x="668" y="28" width="45" height="485"/>
</g>
</g>

<g  clip-path="url(#clip24)" 
>
<g fill="#4e79a7" fill-opacity="1" stroke="none" transform="matrix(1,0,0,1,72,73)"
font-family="Arial" font-size="16" font-weight="400" font-style="normal" 
>
<rect x="608" y="49" width="45" height="464"/>
</g>
</g>

<g  clip-path="url(#clip24)" 
>
<g fill="#4e79a7" fill-opacity="1" stroke="none" transform="matrix(1,0,0,1,72,73)"
font-family="Arial" font-size="16" font-weight="400" font-style="normal" 
>
<rect x="548" y="39" width="45" height="474"/>
</g>
</g>

<g  clip-path="url(#clip24)" 
>
<g fill="#4e79a7" fill-opacity="1" stroke="none" transform="matrix(1,0,0,1,72,73)"
font-family="Arial" font-size="16" font-weight="400" font-style="normal" 
>
<rect x="488" y="33" width="45" height="480"/>
</g>
</g>

<g  clip-path="url(#clip24)" 
>
<g fill="#4e79a7" fill-opacity="1" stroke="none" transform="matrix(1,0,0,1,72,73)"
font-family="Arial" font-size="16" font-weight="400" font-style="normal" 
>
<rect x="428" y="57" width="45" height="456"/>
</g>
</g>

<g  clip-path="url(#clip24)" 
>
<g fill="#4e79a7" fill-opacity="1" stroke="none" transform="matrix(1,0,0,1,72,73)"
font-family="Arial" font-size="16" font-weight="400" font-style="normal" 
>
<rect x="368" y="32" width="45" height="481"/>
</g>
</g>

<g  clip-path="url(#clip24)" 
>
<g fill="#4e79a7" fill-opacity="1" stroke="none" transform="matrix(1,0,0,1,72,73)"
font-family="Arial" font-size="16" font-weight="400" font-style="normal" 
>
<rect x="308" y="43" width="45" height="470"/>
</g>
</g>

<g  clip-path="url(#clip24)" 
>
<g fill="#4e79a7" fill-opacity="1" stroke="none" transform="matrix(1,0,0,1,72,73)"
font-family="Arial" font-size="16" font-weight="400" font-style="normal" 
>
<rect x="248" y="24" width="45" height="489"/>
</g>
</g>

<g  clip-path="url(#clip24)" 
>
<g fill="#4e79a7" fill-opacity="1" stroke="none" transform="matrix(1,0,0,1,72,73)"
font-family="Arial" font-size="16" font-weight="400" font-style="normal" 
>
<rect x="188" y="34" width="45" height="479"/>
</g>
</g>

<g  clip-path="url(#clip24)" 
>
<g fill="#4e79a7" fill-opacity="1" stroke="none" transform="matrix(1,0,0,1,72,73)"
font-family="Arial" font-size="16" font-weight="400" font-style="normal" 
>
<rect x="128" y="25" width="45" height="488"/>
</g>
</g>

<g  clip-path="url(#clip24)" 
>
<g fill="#4e79a7" fill-opacity="1" stroke="none" transform="matrix(1,0,0,1,72,73)"
font-family="Arial" font-size="16" font-weight="400" font-style="normal" 
>
<rect x="68" y="40" width="45" height="473"/>
</g>
</g>

<g  clip-path="url(#clip24)" 
>
<g fill="#4e79a7" fill-opacity="1" stroke="none" transform="matrix(1,0,0,1,72,73)"
font-family="Arial" font-size="16" font-weight="400" font-style="normal" 
>
<rect x="8" y="31" width="45" height="482"/>
</g>
</g>

<clipPath id ="clip25" >
<rect x="0" y="0" height="514" width="721" transform="matrix(1,0,0,1,72,73)" />
</clipPath>
<g  clip-path="url(#clip25)" 
>
<g fill="#4e79a7" fill-opacity="1" stroke="none" transform="matrix(1,0,0,1,72,73)"
font-family="Arial" font-size="16" font-weight="400" font-style="normal" 
>
</g>
</g>

<clipPath id ="clip26" >
<rect x="0" y="0" height="514" width="721" transform="matrix(1,0,0,1,72,73)" />
</clipPath>
<g  clip-path="url(#clip26)" 
>
<g fill="#4e79a7" fill-opacity="1" stroke="none" transform="matrix(1,0,0,1,72,73)"
font-family="Arial" font-size="16" font-weight="400" font-style="normal" 
>
</g>
</g>

<clipPath id ="clip27" >
<rect x="0" y="0" height="513" width="720" transform="matrix(1,0,0,1,72,73)" />
</clipPath>
<g  clip-path="url(#clip27)" 
>
<g fill="#4e79a7" fill-opacity="1" stroke="none" transform="matrix(1,0,0,1,72,73)"
font-family="Arial" font-size="16" font-weight="400" font-style="normal" 
>
</g>
</g>

<clipPath id ="clip28" >
<rect x="0" y="0" height="514" width="721" transform="matrix(1,0,0,1,72,73)" />
</clipPath>
<g  clip-path="url(#clip28)" 
>
<g fill="#4e79a7" fill-opacity="1" stroke="none" transform="matrix(1,0,0,1,72,73)"
font-family="Arial" font-size="16" font-weight="400" font-style="normal" 
>
</g>
</g>

<clipPath id ="clip29" >
<rect x="0" y="0" height="513" width="720" transform="matrix(1,0,0,1,72,73)" />
</clipPath>
<g  clip-path="url(#clip29)" 
>
<g fill="#4e79a7" fill-opacity="1" stroke="none" transform="matrix(1,0,0,1,72,73)"
font-family="Arial" font-size="16" font-weight="400" font-style="normal" 
>
</g>
</g>

<clipPath id ="clip30" >
<rect x="0" y="0" height="514" width="721" transform="matrix(1,0,0,1,72,73)" />
</clipPath>
<g  clip-path="url(#clip30)" 
>
<g fill="#4e79a7" fill-opacity="1" stroke="none" transform="matrix(1,0,0,1,72,73)"
font-family="Arial" font-size="16" font-weight="400" font-style="normal" 
>
</g>
</g>

<clipPath id ="clip31" >
<rect x="0" y="0" height="513" width="720" transform="matrix(1,0,0,1,72,73)" />
</clipPath>
<g  clip-path="url(#clip31)" 
>
<g fill="#4e79a7" fill-opacity="1" stroke="none" transform="matrix(1,0,0,1,72,73)"
font-family="Arial" font-size="16" font-weight="400" font-style="normal" 
>
</g>
</g>

<clipPath id ="clip32" >
<rect x="0" y="0" height="514" width="721" transform="matrix(1,0,0,1,72,73)" />
</clipPath>
<g  clip-path="url(#clip32)" 
>
<g fill="#4e79a7" fill-opacity="1" stroke="none" transform="matrix(1,0,0,1,72,73)"
font-family="Arial" font-size="16" font-weight="400" font-style="normal" 
>
</g>
</g>

<clipPath id ="clip33" >
<rect x="0" y="0" height="514" width="721" transform="matrix(1,0,0,1,72,73)" />
</clipPath>
<g  clip-path="url(#clip33)" 
>
<g fill="#4e79a7" fill-opacity="1" stroke="none" transform="matrix(1,0,0,1,72,73)"
font-family="Arial" font-size="16" font-weight="400" font-style="normal" 
>
</g>
</g>

<clipPath id ="clip34" >
<rect x="0" y="0" height="513" width="720" transform="matrix(1,0,0,1,72,73)" />
</clipPath>
<g  clip-path="url(#clip34)" 
>
<g fill="#4e79a7" fill-opacity="1" stroke="none" transform="matrix(1,0,0,1,72,73)"
font-family="Arial" font-size="16" font-weight="400" font-style="normal" 
>
</g>
</g>

<clipPath id ="clip35" >
<rect x="0" y="0" height="514" width="721" transform="matrix(1,0,0,1,72,73)" />
</clipPath>
<g  clip-path="url(#clip35)" 
>
<g fill="#4e79a7" fill-opacity="1" stroke="none" transform="matrix(1,0,0,1,72,73)"
font-family="Arial" font-size="16" font-weight="400" font-style="normal" 
>
</g>
</g>

<clipPath id ="clip36" >
<rect x="0" y="0" height="513" width="720" transform="matrix(1,0,0,1,72,73)" />
</clipPath>
<g  clip-path="url(#clip36)" 
>
<g fill="#4e79a7" fill-opacity="1" stroke="none" transform="matrix(1,0,0,1,72,73)"
font-family="Arial" font-size="16" font-weight="400" font-style="normal" 
>
</g>
</g>

<clipPath id ="clip37" >
<rect x="0" y="0" height="514" width="721" transform="matrix(1,0,0,1,72,73)" />
</clipPath>
<g  clip-path="url(#clip37)" 
>
<g fill="#4e79a7" fill-opacity="1" stroke="none" transform="matrix(1,0,0,1,72,73)"
font-family="Arial" font-size="16" font-weight="400" font-style="normal" 
>
</g>
</g>

<clipPath id ="clip38" >
<rect x="0" y="0" height="513" width="720" transform="matrix(1,0,0,1,72,73)" />
</clipPath>
<g  clip-path="url(#clip38)" 
>
<g fill="#4e79a7" fill-opacity="1" stroke="none" transform="matrix(1,0,0,1,72,73)"
font-family="Arial" font-size="16" font-weight="400" font-style="normal" 
>
</g>
</g>

<clipPath id ="clip39" >
<rect x="0" y="0" height="514" width="721" transform="matrix(1,0,0,1,72,73)" />
</clipPath>
<g  clip-path="url(#clip39)" 
>
<g fill="#4e79a7" fill-opacity="1" stroke="none" transform="matrix(1,0,0,1,72,73)"
font-family="Arial" font-size="16" font-weight="400" font-style="normal" 
>
</g>
</g>

<clipPath id ="clip40" >
<rect x="0" y="0" height="514" width="721" transform="matrix(1,0,0,1,72,73)" />
</clipPath>
<g  clip-path="url(#clip40)" 
>
<g fill="#4e79a7" fill-opacity="1" stroke="none" transform="matrix(1,0,0,1,72,73)"
font-family="Arial" font-size="16" font-weight="400" font-style="normal" 
>
</g>
</g>

<clipPath id ="clip41" >
<rect x="0" y="0" height="513" width="720" transform="matrix(1,0,0,1,72,73)" />
</clipPath>
<g  clip-path="url(#clip41)" 
>
<g fill="#4e79a7" fill-opacity="1" stroke="none" transform="matrix(1,0,0,1,72,73)"
font-family="Arial" font-size="16" font-weight="400" font-style="normal" 
>
</g>
</g>

<clipPath id ="clip42" >
<rect x="0" y="0" height="514" width="721" transform="matrix(1,0,0,1,72,73)" />
</clipPath>
<g  clip-path="url(#clip42)" 
>
<g fill="#4e79a7" fill-opacity="1" stroke="none" transform="matrix(1,0,0,1,72,73)"
font-family="Arial" font-size="16" font-weight="400" font-style="normal" 
>
</g>
</g>

<clipPath id ="clip43" >
<rect x="0" y="0" height="513" width="720" transform="matrix(1,0,0,1,72,73)" />
</clipPath>
<g  clip-path="url(#clip43)" 
>
<g fill="#4e79a7" fill-opacity="1" stroke="none" transform="matrix(1,0,0,1,72,73)"
font-family="Arial" font-size="16" font-weight="400" font-style="normal" 
>
</g>
</g>

<clipPath id ="clip44" >
<rect x="0" y="0" height="514" width="721" transform="matrix(1,0,0,1,72,73)" />
</clipPath>
<g  clip-path="url(#clip44)" 
>
<g fill="#4e79a7" fill-opacity="1" stroke="none" transform="matrix(1,0,0,1,72,73)"
font-family="Arial" font-size="16" font-weight="400" font-style="normal" 
>
</g>
</g>

<clipPath id ="clip45" >
<rect x="0" y="0" height="513" width="720" transform="matrix(1,0,0,1,72,73)" />
</clipPath>
<g  clip-path="url(#clip45)" 
>
<g fill="#4e79a7" fill-opacity="1" stroke="none" transform="matrix(1,0,0,1,72,73)"
font-family="Arial" font-size="16" font-weight="400" font-style="normal" 
>
</g>
</g>

<clipPath id ="clip46" >
<rect x="0" y="0" height="514" width="721" transform="matrix(1,0,0,1,72,73)" />
</clipPath>
<g  clip-path="url(#clip46)" 
>
<g fill="#4e79a7" fill-opacity="1" stroke="none" transform="matrix(1,0,0,1,72,73)"
font-family="Arial" font-size="16" font-weight="400" font-style="normal" 
>
</g>
</g>

<clipPath id ="clip47" >
<rect x="0" y="0" height="514" width="721" transform="matrix(1,0,0,1,72,73)" />
</clipPath>
<g  clip-path="url(#clip47)" 
>
<g fill="#4e79a7" fill-opacity="1" stroke="none" transform="matrix(1,0,0,1,72,73)"
font-family="Arial" font-size="16" font-weight="400" font-style="normal" 
>
</g>
</g>

<clipPath id ="clip48" >
<rect x="0" y="0" height="513" width="720" transform="matrix(1,0,0,1,72,73)" />
</clipPath>
<g  clip-path="url(#clip48)" 
>
<g fill="#4e79a7" fill-opacity="1" stroke="none" transform="matrix(1,0,0,1,72,73)"
font-family="Arial" font-size="16" font-weight="400" font-style="normal" 
>
</g>
</g>

<clipPath id ="clip49" >
<rect x="0" y="0" height="514" width="721" transform="matrix(1,0,0,1,72,73)" />
</clipPath>
<g  clip-path="url(#clip49)" 
>
<g fill="#4e79a7" fill-opacity="1" stroke="none" transform="matrix(1,0,0,1,72,73)"
font-family="Arial" font-size="16" font-weight="400" font-style="normal" 
>
</g>
</g>

<clipPath id ="clip50" >
<rect x="0" y="0" height="513" width="720" transform="matrix(1,0,0,1,72,73)" />
</clipPath>
<g  clip-path="url(#clip50)" 
>
<g fill="#4e79a7" fill-opacity="1" stroke="none" transform="matrix(1,0,0,1,72,73)"
font-family="Arial" font-size="16" font-weight="400" font-style="normal" 
>
</g>
</g>

<clipPath id ="clip51" >
<rect x="0" y="0" height="514" width="721" transform="matrix(1,0,0,1,72,73)" />
</clipPath>
<g  clip-path="url(#clip51)" 
>
<g fill="#4e79a7" fill-opacity="1" stroke="none" transform="matrix(1,0,0,1,72,73)"
font-family="Arial" font-size="16" font-weight="400" font-style="normal" 
>
</g>
</g>

<clipPath id ="clip52" >
<rect x="0" y="0" height="513" width="720" transform="matrix(1,0,0,1,72,73)" />
</clipPath>
<g  clip-path="url(#clip52)" 
>
<g fill="#4e79a7" fill-opacity="1" stroke="none" transform="matrix(1,0,0,1,72,73)"
font-family="Arial" font-size="16" font-weight="400" font-style="normal" 
>
</g>
</g>

<clipPath id ="clip53" >
<rect x="0" y="0" height="514" width="721" transform="matrix(1,0,0,1,72,73)" />
</clipPath>
<g  clip-path="url(#clip53)" 
>
<g fill="#4e79a7" fill-opacity="1" stroke="none" transform="matrix(1,0,0,1,72,73)"
font-family="Arial" font-size="16" font-weight="400" font-style="normal" 
>
</g>
</g>

<clipPath id ="clip54" >
<rect x="0" y="0" height="514" width="721" transform="matrix(1,0,0,1,72,73)" />
</clipPath>
<g  clip-path="url(#clip54)" 
>
<g fill="#4e79a7" fill-opacity="1" stroke="none" transform="matrix(1,0,0,1,72,73)"
font-family="Arial" font-size="16" font-weight="400" font-style="normal" 
>
</g>
</g>

<clipPath id ="clip55" >
<rect x="0" y="0" height="514" width="721" transform="matrix(1,0,0,1,72,73)" />
</clipPath>
<g  clip-path="url(#clip55)" 
>
<g fill="#4e79a7" fill-opacity="1" stroke="none" transform="matrix(1,0,0,1,72,73)"
font-family="Arial" font-size="16" font-weight="400" font-style="normal" 
>
</g>
</g>

<g  clip-path="url(#clip55)" 
>
<g fill="none" stroke="#f5f5f5" stroke-opacity="1" stroke-width="1" stroke-linecap="square" stroke-linejoin="bevel" transform="matrix(1,0,0,1,72,73)"
font-family="Arial" font-size="16" font-weight="400" font-style="normal" 
>
<polyline fill="none" vector-effect="none" points="0,513 720,513 " />
<polyline fill="none" vector-effect="none" points="0,0 0,513 " />
</g>
</g>

<clipPath id ="clip56" >
<rect x="0" y="0" height="514" width="721" transform="matrix(1,0,0,1,72,73)" />
</clipPath>
<g  clip-path="url(#clip56)" 
>
<g fill="none" stroke="#f5f5f5" stroke-opacity="1" stroke-width="1" stroke-linecap="square" stroke-linejoin="bevel" transform="matrix(1,0,0,1,72,73)"
font-family="Arial" font-size="16" font-weight="400" font-style="normal" 
>
</g>
</g>

<g >
<g fill="none" stroke="#f5f5f5" stroke-opacity="1" stroke-width="1" stroke-linecap="square" stroke-linejoin="bevel" transform="matrix(1,0,0,1,72,73)"
font-family="Arial" font-size="16" font-weight="400" font-style="normal" 
>
</g>
</g>

<g >
<g fill="none" stroke="#333333" stroke-opacity="1" stroke-width="1" stroke-linecap="square" stroke-linejoin="bevel" transform="matrix(1,0,0,1,0,0)"
font-family="Arial" font-size="27" font-weight="400" font-style="normal" 
>
<text fill="#333333" fill-opacity="1" stroke="none" xml:space="preserve" x="4" y="34" font-family="Arial" font-size="27" font-weight="400" font-style="normal" 
 >Avg Rating Per Month</text>
</g>
</g>
</g>
</svg>
